<?xml version="1.0" encoding="utf-8"?>
<!-- Generator: Adobe Illustrator 21.0.0, SVG Export Plug-In . SVG Version: 6.00 Build 0)  -->
<svg version="1.1" id="Layer_1" xmlns="http://www.w3.org/2000/svg" xmlns:xlink="http://www.w3.org/1999/xlink" x="0px" y="0px"
	 viewBox="0 0 14 14" style="enable-background:new 0 0 14 14;" xml:space="preserve">
<style type="text/css">
	.st0{fill:#237377;}
</style>
<title>account</title>
<path class="st0" d="M2.4,9.7c1.5-0.6,3-0.9,4.6-1c1.6,0,3.2,0.4,4.6,1c1.6,0.7,2.4,1.5,2.4,2.5V14H0v-1.8C0,11.2,0.8,10.4,2.4,9.7z
	 M9.5,6C8.8,6.7,7.9,7,7,7C6.1,7,5.2,6.7,4.5,6c-0.7-0.6-1-1.5-1-2.5c0-0.9,0.3-1.9,1-2.5C5.2,0.3,6.1,0,7,0c0.9,0,1.8,0.3,2.5,1
	c0.7,0.7,1,1.6,1,2.5C10.5,4.4,10.1,5.3,9.5,6z"/>
</svg>
