<?xml version="1.0" encoding="utf-8"?>
<!-- Generator: Adobe Illustrator 21.0.0, SVG Export Plug-In . SVG Version: 6.00 Build 0)  -->
<svg version="1.1" id="Layer_1" xmlns="http://www.w3.org/2000/svg" xmlns:xlink="http://www.w3.org/1999/xlink" x="0px" y="0px"
	 viewBox="0 0 14 14" style="enable-background:new 0 0 14 14;" xml:space="preserve">
<style type="text/css">
	.st0{fill:#595959;}
</style>
<title>contact</title>
<path class="st0" d="M2.8,6.1c1.1,2.2,2.9,4,5.1,5.1l1.7-1.7c0.2-0.2,0.5-0.3,0.8-0.2c0.9,0.3,1.8,0.4,2.8,0.4
	c0.4,0,0.8,0.3,0.8,0.7c0,0,0,0,0,0v2.7c0,0.4-0.3,0.8-0.7,0.8c0,0,0,0,0,0c-3.5,0.1-6.9-1.4-9.4-3.9C1.3,7.7-0.1,4.3,0,0.8
	C0,0.4,0.3,0,0.7,0c0,0,0,0,0,0h2.7c0.4,0,0.8,0.3,0.8,0.7c0,0,0,0,0,0c0,0.9,0.1,1.9,0.4,2.8c0.1,0.3,0,0.6-0.2,0.8L2.8,6.1z"/>
</svg>
