<?xml version="1.0" encoding="utf-8"?>
<!-- Generator: Adobe Illustrator 21.0.0, SVG Export Plug-In . SVG Version: 6.00 Build 0)  -->
<svg version="1.1" id="Layer_1" xmlns="http://www.w3.org/2000/svg" xmlns:xlink="http://www.w3.org/1999/xlink" x="0px" y="0px"
	 viewBox="0 0 24 22" style="enable-background:new 0 0 24 22;" xml:space="preserve">
<style type="text/css">
	.st0{fill:#237377;}
</style>
<title>enewsletter</title>
<path class="st0" d="M4,0v4H0v15.2C0,20.8,1.2,22,2.8,22c0,0,0,0,0,0h18.3c1.6-0.1,2.9-1.4,2.9-3V0H4z M22,19c0,0.5-0.4,0.9-0.9,1
	H2.8C2.4,20,2,19.6,2,19.2l0,0V6h2v11h2L5.8,2H22V19z"/>
<rect x="8" y="6" class="st0" width="12" height="2"/>
<rect x="8" y="11" class="st0" width="5" height="2"/>
<rect x="8" y="15" class="st0" width="5" height="2"/>
<rect x="15" y="11" class="st0" width="5" height="2"/>
<rect x="15" y="15" class="st0" width="5" height="2"/>
</svg>
