<?xml version="1.0" encoding="utf-8"?>
<!-- Generator: Adobe Illustrator 21.0.0, SVG Export Plug-In . SVG Version: 6.00 Build 0)  -->
<svg version="1.1" id="Layer_1" xmlns="http://www.w3.org/2000/svg" xmlns:xlink="http://www.w3.org/1999/xlink" x="0px" y="0px"
	 viewBox="0 0 34.2 34.9" style="enable-background:new 0 0 34.2 34.9;" xml:space="preserve">
<style type="text/css">
	.st0{fill:none;}
	.st1{fill:#FFFFFF;}
</style>
<title>equal-housing</title>
<path class="st0" d="M4.9,9.5v12.4h24.5V9.6L17.1,3.7L4.9,9.5z M23.6,19H10.6v-3.4h13.1V19z M23.6,13.5H10.6v-3.5h13.1V13.5z"/>
<path class="st1" d="M17.1,0L0,8.1v3.7l1.6-0.8v14.1h31.1v-14l1.6,0.8V8.1L17.1,0z M29.4,21.9H4.9V9.5l12.3-5.8l12.3,5.9V21.9z"/>
<rect x="10.6" y="15.6" class="st1" width="13.1" height="3.4"/>
<rect x="10.6" y="10.1" class="st1" width="13.1" height="3.5"/>
<path class="st1" d="M3.1,35c0.8,0,1.4-0.6,1.4-1.4c0-0.8-0.6-1.4-1.4-1.4l0,0c-0.8,0-1.4,0.6-1.4,1.4C1.7,34.4,2.3,35,3.1,35z
	 M3.1,32.8c0.5,0,0.8,0.4,0.8,0.8c0,0.5-0.4,0.8-0.8,0.9c-0.5,0-0.8-0.4-0.8-0.9C2.3,33.1,2.6,32.8,3.1,32.8z"/>
<path class="st1" d="M6,34h0.3c0.6,0,0.9-0.3,0.9-0.8s-0.4-0.8-1-0.8H5.5V35H6V34z M6,32.8L6,32.8c0.4,0,0.6,0,0.6,0.4
	s-0.2,0.4-0.5,0.4H6V32.8L6,32.8z"/>
<path class="st1" d="M8.8,34H9c0.6,0,0.9-0.3,0.9-0.8s-0.4-0.8-1-0.8H8.2V35h0.6L8.8,34L8.8,34z M8.8,32.8h0.1c0.3,0,0.5,0,0.5,0.4
	s-0.2,0.4-0.5,0.4H8.8V32.8L8.8,32.8z"/>
<path class="st1" d="M12.2,35c0.8,0,1.3-0.7,1.3-1.4c0-0.8-0.7-1.3-1.4-1.3c-0.7,0-1.3,0.6-1.3,1.4C10.8,34.4,11.4,35,12.2,35
	C12.1,35,12.2,35,12.2,35z M12.2,32.8c0.5,0,0.8,0.4,0.8,0.8c0,0.5-0.4,0.8-0.8,0.9c-0.5,0-0.8-0.4-0.8-0.9
	C11.4,33.1,11.7,32.8,12.2,32.8z"/>
<path class="st1" d="M15.7,33.8c0.4-0.1,0.6-0.4,0.6-0.7c0-0.6-0.4-0.8-1-0.8h-0.8v2.6h0.6v-1.1l0,0l0.7,1h0.7L15.7,33.8L15.7,33.8z
	 M15.1,32.7L15.1,32.7c0.4,0,0.6,0.1,0.6,0.4s-0.2,0.4-0.5,0.4h-0.1L15.1,32.7L15.1,32.7z"/>
<polygon class="st1" points="18.3,32.8 18.8,32.8 18.8,32.3 17.1,32.3 17.1,32.8 17.7,32.8 17.7,34.9 18.3,34.9 18.3,32.8 
	18.3,32.8 "/>
<path class="st1" d="M19.7,33.9c-0.1,0.6,0.4,1.1,1,1.2c0.6,0.1,1.1-0.4,1.2-1c0-0.1,0-0.1,0-0.2v-1.6h-0.6v1.5c0,0.3,0,0.8-0.5,0.8
	s-0.5-0.5-0.5-0.8v-1.5h-0.6L19.7,33.9L19.7,33.9z"/>
<polygon class="st1" points="23,34.9 23.5,34.9 23.5,33.2 23.5,33.2 25,35 25.4,35 25.4,32.3 24.9,32.3 24.9,34.1 24.9,34.1 
	23.4,32.3 23,32.3 23,34.9 23,34.9 "/>
<polygon class="st1" points="27.1,32.3 26.5,32.3 26.5,34.9 27.1,34.9 27.1,32.3 27.1,32.3 "/>
<polygon class="st1" points="29.1,32.8 29.7,32.8 29.7,32.3 28,32.3 28,32.8 28.6,32.8 28.6,34.9 29.1,34.9 29.1,32.8 29.1,32.8 "/>
<polygon class="st1" points="31.3,33.7 31.3,34.9 31.8,34.9 31.8,33.7 32.7,32.3 32.1,32.3 31.5,33.2 31,32.3 30.4,32.3 31.3,33.7 
	31.3,33.7 "/>
<polygon class="st1" points="3.3,28.7 3.3,28.3 1.8,28.3 1.8,30.9 3.3,30.9 3.3,30.5 2.4,30.5 2.4,29.8 3.3,29.8 3.3,29.3 2.4,29.3 
	2.4,28.7 3.3,28.7 3.3,28.7 "/>
<path class="st1" d="M6.5,31l-0.4-0.4c0.2-0.3,0.3-0.6,0.3-0.9c0-0.8-0.6-1.4-1.3-1.4c0,0-0.1,0-0.1,0c-0.8,0-1.4,0.6-1.4,1.4
	C3.6,30.4,4.2,31,5,31c0.2,0,0.5-0.1,0.7-0.2L5.9,31L6.5,31z M5.4,29.9H4.8l0.5,0.5c-0.1,0.1-0.2,0.1-0.3,0.1
	c-0.5,0-0.8-0.3-0.8-0.8c0,0,0,0,0-0.1c0-0.5,0.4-0.8,0.8-0.8s0.8,0.4,0.8,0.8c0,0,0,0,0,0c0,0.2-0.1,0.4-0.2,0.5L5.4,29.9L5.4,29.9
	z"/>
<path class="st1" d="M6.8,29.9C6.7,30.4,7,30.9,7.6,31c0.1,0,0.2,0,0.2,0c0.6,0,1-0.4,1.1-0.9c0-0.1,0-0.1,0-0.2v-1.6H8.3v1.5
	c0,0.3,0,0.8-0.5,0.8s-0.5-0.5-0.5-0.8v-1.5H6.8V29.9z"/>
<path class="st1" d="M10.9,30.4l0.2,0.5h0.6l-1.1-2.7h-0.4l-1.1,2.7h0.6l0.2-0.5H10.9z M10.8,29.9h-0.7l0.3-0.9l0,0L10.8,29.9
	L10.8,29.9z"/>
<polygon class="st1" points="12.5,28.3 12,28.3 12,30.9 13.3,30.9 13.3,30.5 12.5,30.5 12.5,28.3 12.5,28.3 "/>
<polygon class="st1" points="16.3,29.3 16.3,28.3 15.8,28.3 15.8,30.9 16.3,30.9 16.3,29.7 17.4,29.7 17.4,30.9 17.9,30.9 
	17.9,28.3 17.4,28.3 17.4,29.3 16.3,29.3 16.3,29.3 "/>
<path class="st1" d="M19.7,31c0.8,0,1.3-0.7,1.3-1.4c0-0.8-0.7-1.3-1.4-1.3c-0.7,0-1.3,0.6-1.3,1.4C18.3,30.4,18.9,31,19.7,31
	C19.6,31,19.7,31,19.7,31z M19.7,28.8c0.5,0,0.8,0.4,0.8,0.9c0,0.5-0.4,0.8-0.8,0.8s-0.8-0.4-0.8-0.8l0,0
	C18.8,29.1,19.2,28.8,19.7,28.8z"/>
<path class="st1" d="M21.4,29.9c-0.1,0.6,0.4,1.1,1,1.2c0.6,0.1,1.1-0.4,1.2-1c0-0.1,0-0.1,0-0.2v-1.6H23v1.5c0,0.3,0,0.8-0.5,0.8
	S22,30.1,22,29.8v-1.5h-0.6L21.4,29.9L21.4,29.9z"/>
<path class="st1" d="M25.6,28.5c-0.2-0.2-0.5-0.3-0.8-0.3c-0.4,0-0.8,0.3-0.8,0.7c0,0,0,0,0,0c0,0.4,0.3,0.6,0.6,0.7
	s0.5,0.2,0.5,0.4c0,0.2-0.1,0.4-0.3,0.4c0,0,0,0,0,0c-0.2,0-0.4-0.2-0.5-0.4l-0.4,0.3c0.2,0.3,0.5,0.5,0.9,0.5
	c0.5,0,0.9-0.3,0.9-0.8c0,0,0-0.1,0-0.1c0-0.9-1.1-0.7-1.1-1.1c0-0.2,0.2-0.3,0.4-0.3c0.2,0,0.3,0.1,0.4,0.2L25.6,28.5L25.6,28.5z"
	/>
<polygon class="st1" points="26.6,28.3 26.1,28.3 26.1,30.9 26.6,30.9 26.6,28.3 26.6,28.3 "/>
<polygon class="st1" points="27.1,30.9 27.7,30.9 27.7,29.1 27.7,29.1 29.2,31 29.6,31 29.6,28.3 29,28.3 29,30 29,30 27.5,28.2 
	27.1,28.2 27.1,30.9 27.1,30.9 "/>
<path class="st1" d="M31.4,29.5v0.4H32c0,0.3-0.3,0.6-0.6,0.6c-0.5,0-0.8-0.4-0.8-0.9c0,0,0,0,0,0c0-0.5,0.3-0.9,0.8-0.9
	c0,0,0,0,0,0c0.3,0,0.5,0.2,0.6,0.4l0.5-0.2c-0.2-0.4-0.7-0.6-1.1-0.6c-0.7,0-1.4,0.6-1.4,1.3c0,0,0,0.1,0,0.1
	c0,0.7,0.5,1.4,1.3,1.4c0,0,0,0,0.1,0c0.7,0,1.3-0.5,1.3-1.2c0-0.1,0-0.1,0-0.2v-0.1L31.4,29.5z"/>
</svg>
