<?xml version="1.0" encoding="utf-8"?>
<!-- Generator: Adobe Illustrator 21.0.0, SVG Export Plug-In . SVG Version: 6.00 Build 0)  -->
<svg version="1.1" id="Layer_1" xmlns="http://www.w3.org/2000/svg" xmlns:xlink="http://www.w3.org/1999/xlink" x="0px" y="0px"
	 viewBox="0 0 30.1 34.9" style="enable-background:new 0 0 30.1 34.9;" xml:space="preserve">
<style type="text/css">
	.st0{fill:#FFFFFF;}
</style>
<title>realtor</title>
<path class="st0" d="M0.6,30.8h0.6c0.3-0.1,0.7,0,1,0.2c0.2,0.2,0.3,0.5,0.3,0.8c0,0.5-0.4,0.9-0.9,0.9c0,0-0.1,0-0.1,0H1.2l1.3,2.2
	H3l-1-1.8c0.7-0.1,1.1-0.7,1.1-1.3c0-0.5-0.2-0.9-0.6-1.2c-0.3-0.2-0.7-0.3-1.1-0.3H0.2v4.5h0.4V30.8z"/>
<polygon class="st0" points="5.1,32.4 5.1,30.8 7.1,30.8 7.1,30.4 4.7,30.4 4.7,34.9 7.1,34.9 7.1,34.4 5.1,34.4 5.1,32.8 7.1,32.8 
	7.1,32.4 "/>
<path class="st0" d="M11.1,33.1H9.4l0.9-2.3L11.1,33.1z M8.8,34.9l0.5-1.4h2l0.5,1.4h0.5l-1.7-4.5H10l-1.7,4.5H8.8z"/>
<polygon class="st0" points="15.6,34.9 15.6,34.4 14,34.4 14,30.4 13.6,30.4 13.6,34.9 "/>
<polygon class="st0" points="17.8,34.9 17.8,30.8 18.8,30.8 18.8,30.4 16.5,30.4 16.5,30.8 17.4,30.8 17.4,34.9 "/>
<path class="st0" d="M19.7,32.6c0,1.3,1,2.3,2.3,2.4c0.7,0,1.3-0.3,1.7-0.7c0.8-0.9,0.8-2.3-0.1-3.2c-0.9-0.9-2.3-0.9-3.2,0
	C19.9,31.4,19.7,32,19.7,32.6L19.7,32.6z M20.1,32.6c0-0.6,0.3-1.1,0.7-1.5c0.3-0.3,0.7-0.4,1.2-0.4c1.1,0.1,1.8,1,1.8,2
	c-0.1,0.9-0.8,1.7-1.8,1.8c-1,0-1.8-0.8-1.8-1.8C20.2,32.7,20.2,32.6,20.1,32.6L20.1,32.6z"/>
<path class="st0" d="M26.2,30.8h0.6c0.3-0.1,0.7,0,1,0.2c0.2,0.2,0.3,0.5,0.3,0.8c0,0.5-0.4,0.9-0.9,0.9c0,0-0.1,0-0.1,0h-0.4
	l1.3,2.2h0.5l-1.1-1.8c0.7-0.1,1.1-0.7,1.1-1.3c0-0.5-0.2-0.9-0.6-1.2c-0.3-0.2-0.7-0.3-1.1-0.3h-1.2v4.5h0.4L26.2,30.8L26.2,30.8z"
	/>
<path class="st0" d="M0,0v28.7h28.5V0H0z M26.2,25.1H15V14.3L26.2,25.1z M15,14.2V3.4h3.2c3,0.2,5.3,2.8,5.1,5.7
	c-0.2,2.7-2.4,4.9-5.1,5.1L15,14.2z M12,3.3v21.8H3.8V3.3H12z"/>
<path d="M29.3,29.5c-0.2,0-0.4,0.1-0.6,0.2c-0.2,0.1-0.2,0.4-0.2,0.6c0,0.4,0.4,0.8,0.8,0.8c0.4,0,0.8-0.4,0.8-0.8
	C30.1,29.9,29.8,29.5,29.3,29.5C29.3,29.5,29.3,29.5,29.3,29.5z M30,30.3c0,0.2-0.1,0.4-0.2,0.5c-0.1,0.1-0.3,0.2-0.5,0.2
	c-0.2,0-0.4-0.1-0.5-0.2c-0.1-0.1-0.2-0.3-0.2-0.5c0-0.2,0.1-0.4,0.2-0.5c0.1-0.1,0.3-0.2,0.5-0.2c0.2,0,0.4,0.1,0.5,0.2
	C30,29.9,30,30.1,30,30.3L30,30.3z M29.3,29.9H29v0.9h0.1v-0.4h0.2l0.2,0.4h0.2l-0.2-0.4c0.1,0,0.2-0.1,0.2-0.2
	C29.7,29.9,29.6,29.9,29.3,29.9L29.3,29.9z M29.3,30c0.2,0,0.3,0,0.3,0.2s-0.1,0.2-0.3,0.2h-0.2V30L29.3,30z"/>
</svg>
